<svg width="3993" height="1510" viewBox="0 0 3993 1510" fill="none" xmlns="http://www.w3.org/2000/svg">
<g clip-path="url(#clip0_20_2)">
<rect width="3993" height="1510" fill="white"/>
<path fill-rule="evenodd" clip-rule="evenodd" d="M767.442 1154.95C1028.51 1152.56 1239.58 1089.43 1238.89 1013.93C1238.2 938.436 1026.01 879.171 764.941 881.559C503.878 883.947 292.803 947.083 293.494 1022.58C294.184 1098.07 506.378 1157.34 767.442 1154.95ZM767.969 1101.12C992.914 1099.06 1174.82 1048.43 1174.27 988.041C1173.72 927.647 990.914 880.357 765.968 882.414C541.023 884.471 359.117 935.098 359.669 995.492C360.221 1055.89 543.023 1103.18 767.969 1101.12Z" fill="#414141"/>
<path d="M727.832 615.341L691.324 583.758L828.849 611.159L733.692 695.929L741.042 647.487L727.832 615.341Z" fill="white"/>
<path d="M714.228 618.583L677.72 587L815.245 614.401L720.087 699.172L727.437 650.729L714.228 618.583Z" fill="#414141"/>
<path d="M757.14 233.632L756.535 233.36L755.927 233.624C637.675 284.989 568.313 308.87 432.396 332.092L431.104 332.313L431.15 333.623C437.767 524.49 460.972 654.051 511.551 754.024C562.154 854.043 640.069 924.279 755.728 996.675L756.538 997.181L757.339 996.662C883.699 914.871 963.106 836.904 1010.01 735.357C1056.9 633.851 1071.22 508.969 1067.82 333.542L1067.79 332.293L1066.56 332.091C942.576 311.726 875.473 286.955 757.14 233.632Z" fill="#FF0026" stroke="white" stroke-width="3"/>
<path d="M754.62 326.522C844.014 366.538 894.774 385.155 988.511 400.45C993.645 663.5 945.235 774.255 754.62 896.824C580.151 788.339 520.087 686.655 510.098 400.45C612.821 383.015 665.277 365.074 754.62 326.522Z" fill="white"/>
<path d="M482.732 505.019L1034.63 657.444L986.109 734.657L508.47 599.385L482.732 505.019Z" fill="#FF0026"/>
<rect x="422.729" y="572.963" width="197.142" height="63.3669" transform="rotate(16.7319 422.729 572.963)" fill="white"/>
<rect x="894.462" y="551.843" width="197.142" height="63.3669" transform="rotate(16.7319 894.462 551.843)" fill="white"/>
<rect x="874.189" y="235" width="65.5188" height="126.943" fill="#FF0026"/>
<rect x="706.296" y="415.184" width="85.9934" height="85.9934" fill="#414141"/>
<line x1="747.746" y1="415.184" x2="747.746" y2="501.177" stroke="white"/>
<line x1="702.204" y1="459.729" x2="792.293" y2="459.729" stroke="white"/>
<path d="M1430.64 570.056C1443.13 574.312 1456.75 577.717 1471.51 580.271C1486.54 582.541 1501.44 583.676 1516.2 583.676C1536.34 583.676 1551.24 582.825 1560.89 581.122C1570.82 579.136 1577.35 576.156 1580.47 572.184C1583.59 568.211 1585.15 563.104 1585.15 556.861C1585.15 551.47 1584.01 547.213 1581.74 544.092C1579.47 540.971 1575.08 538.559 1568.55 536.856C1562.02 534.87 1552.38 533.309 1539.61 532.174L1511.51 529.621C1490.52 527.634 1473.92 523.236 1461.72 516.426C1449.8 509.616 1441.29 500.536 1436.18 489.186C1431.35 477.552 1428.94 463.648 1428.94 447.474C1428.94 428.178 1432.77 412.572 1440.43 400.654C1448.38 388.736 1461.15 380.082 1478.74 374.69C1496.33 369.015 1519.74 366.178 1548.97 366.178C1586.99 366.178 1618.35 371.143 1643.04 381.075L1641.76 438.961L1640.48 440.663C1612.39 430.732 1583.02 425.766 1552.38 425.766C1537.62 425.766 1526.27 426.618 1518.32 428.32C1510.38 429.739 1504.85 432.151 1501.73 435.556C1498.6 438.961 1497.04 443.785 1497.04 450.027C1497.04 456.27 1498.04 460.952 1500.02 464.073C1502.29 467.195 1506.69 469.606 1513.22 471.309C1519.74 472.728 1529.25 474.147 1541.73 475.565L1568.55 478.545C1591.25 481.098 1608.7 485.639 1620.9 492.165C1633.1 498.691 1641.47 507.488 1646.01 518.554C1650.84 529.337 1653.25 542.531 1653.25 558.138C1653.25 577.15 1649.14 593.04 1640.91 605.809C1632.96 618.294 1619.91 627.658 1601.75 633.901C1583.59 640.143 1559.33 643.264 1528.97 643.264C1509.1 643.264 1491.23 642.271 1475.34 640.285C1459.45 638.015 1443.98 635.036 1428.94 631.347V571.333L1430.64 570.056Z" fill="black"/>
<path d="M1942.86 638.157V639.434H1870.5C1868.52 632.624 1866.1 624.82 1863.27 616.024C1860.71 607.228 1857.88 597.864 1854.75 587.932H1762.82C1757.14 607.795 1751.89 624.962 1747.07 639.434H1674.71V638.583L1761.97 370.008H1855.61L1942.86 638.157ZM1807.93 418.531C1805.1 433.002 1800.98 450.595 1795.59 471.309C1790.2 492.023 1784.52 513.163 1778.57 534.728H1839.43C1833.19 513.163 1827.37 492.023 1821.98 471.309C1816.59 450.595 1812.47 433.002 1809.64 418.531H1807.93Z" fill="black"/>
<path d="M2040.92 639.434H1972.82V370.008H2172.87V425.341H2040.92V487.057H2164.35V542.39H2040.92V639.434Z" fill="black"/>
<path d="M2204.76 639.434V370.008H2404.8V425.341H2272.86V476.417H2387.35V531.749H2272.86V584.102H2404.8V639.434H2204.76Z" fill="black"/>
<path d="M2611.15 559.84C2611.15 550.477 2611.58 541.964 2612.43 534.303L2611.58 533.026C2603.63 534.161 2594.98 535.012 2585.61 535.579C2576.25 535.863 2567.6 535.863 2559.65 535.579V480.247L2670.74 479.822V624.537C2657.69 630.495 2642.79 635.177 2626.05 638.583C2609.59 641.704 2588.59 643.264 2563.06 643.264C2529.01 643.264 2502.33 638.724 2483.04 629.644C2463.74 620.28 2450.12 605.383 2442.18 584.953C2434.23 564.239 2430.26 536.714 2430.26 502.38C2430.26 474.572 2433.38 451.73 2439.62 433.853C2446.15 415.977 2455.51 402.215 2467.71 392.567C2480.2 382.636 2495.38 375.825 2513.26 372.137C2531.13 368.164 2551.56 366.178 2574.55 366.178C2588.17 366.178 2601.79 366.745 2615.41 367.88C2629.31 369.015 2643.08 371.143 2656.7 374.265V430.448L2655.42 431.299C2643.5 428.462 2631.58 426.476 2619.67 425.341C2608.03 424.206 2596.26 423.638 2584.34 423.638C2567.03 423.638 2551.85 425.483 2538.8 429.171C2526.03 432.576 2516.09 439.812 2509 450.879C2501.91 461.945 2498.36 479.112 2498.36 502.38C2498.36 525.364 2500.2 542.957 2503.89 555.159C2507.87 567.076 2515.1 575.305 2525.6 579.845C2536.38 584.102 2551.71 586.23 2571.57 586.23C2574.12 586.23 2578.1 586.23 2583.49 586.23C2588.88 585.946 2594.27 585.662 2599.66 585.378C2605.05 585.095 2608.88 584.669 2611.15 584.102V559.84Z" fill="black"/>
<path d="M2950.92 370.008V528.769C2950.92 556.577 2947.52 578.852 2940.71 595.594C2934.18 612.335 2922.69 624.537 2906.23 632.198C2889.77 639.576 2866.51 643.264 2836.43 643.264C2805.22 643.264 2780.95 639.576 2763.65 632.198C2746.62 624.537 2734.7 612.335 2727.89 595.594C2721.08 578.852 2717.68 556.577 2717.68 528.769V370.008H2785.78V527.492C2785.78 541.964 2787.2 553.314 2790.03 561.543C2792.87 569.772 2797.98 575.589 2805.36 578.994C2812.74 582.115 2823.09 583.676 2836.43 583.676C2848.91 583.676 2858.42 582.115 2864.95 578.994C2871.76 575.589 2876.44 569.772 2878.99 561.543C2881.55 553.314 2882.82 541.964 2882.82 527.492V370.008H2950.92Z" fill="black"/>
<path d="M3248.85 638.157V639.434H3176.5C3174.51 632.624 3172.1 624.82 3169.26 616.024C3166.71 607.228 3163.87 597.864 3160.75 587.932H3068.81C3063.14 607.795 3057.89 624.962 3053.06 639.434H2980.7V638.583L3067.96 370.008H3161.6L3248.85 638.157ZM3113.93 418.531C3111.09 433.002 3106.98 450.595 3101.58 471.309C3096.19 492.023 3090.52 513.163 3084.56 534.728H3145.42C3139.18 513.163 3133.36 492.023 3127.97 471.309C3122.58 450.595 3118.47 433.002 3115.63 418.531H3113.93Z" fill="black"/>
<path d="M3346.91 639.434H3278.81V370.008H3407.35C3441.12 370.008 3465.67 377.67 3480.99 392.993C3496.6 408.032 3504.4 430.306 3504.4 459.817C3504.4 481.95 3498.87 500.961 3487.8 516.852C3476.73 532.458 3462.12 542.248 3443.96 546.22L3443.53 547.497C3450.63 552.037 3458.43 559.557 3466.94 570.056C3475.46 580.555 3483.83 592.047 3492.06 604.532C3500.57 616.733 3508.09 628.225 3514.61 639.008V639.434H3435.45L3389.48 571.333C3385.51 565.374 3382.24 561.117 3379.69 558.564C3377.42 556.01 3374.58 554.449 3371.18 553.882C3368.05 553.314 3362.95 553.03 3355.85 553.03H3346.91V639.434ZM3396.29 425.341H3346.91V497.698H3396.29C3410.48 497.698 3420.27 494.861 3425.66 489.186C3431.33 483.51 3434.17 474.288 3434.17 461.519C3434.17 448.75 3431.33 439.528 3425.66 433.853C3420.27 428.178 3410.48 425.341 3396.29 425.341Z" fill="black"/>
<path d="M3553.15 639.434V370.008H3671.05C3694.6 370.008 3714.32 371.995 3730.21 375.967C3746.1 379.656 3758.87 386.324 3768.52 395.972C3778.16 405.62 3785.12 419.098 3789.37 436.407C3793.63 453.432 3795.76 475.423 3795.76 502.38C3795.76 530.472 3793.63 553.456 3789.37 571.333C3785.12 589.209 3778.16 603.113 3768.52 613.045C3758.87 622.976 3746.1 629.928 3730.21 633.901C3714.32 637.589 3694.6 639.434 3671.05 639.434H3553.15ZM3661.26 427.469H3621.25V581.973H3661.26C3677.72 581.973 3690.63 580.129 3699.99 576.44C3709.64 572.751 3716.45 565.232 3720.42 553.882C3724.68 542.531 3726.81 525.364 3726.81 502.38C3726.81 480.531 3724.68 464.357 3720.42 453.858C3716.45 443.075 3709.64 435.981 3699.99 432.576C3690.63 429.171 3677.72 427.469 3661.26 427.469Z" fill="black"/>
<path d="M3135.55 794.017C3148.04 790.044 3160.95 787.348 3174.29 785.93C3187.91 784.227 3202.52 783.376 3218.13 783.376C3242.53 783.376 3261.82 785.788 3276.01 790.611C3290.2 795.152 3300.27 802.245 3306.23 811.893C3312.47 821.541 3315.6 833.742 3315.6 848.497C3315.6 865.807 3311.48 880.42 3303.25 892.338C3295.02 903.972 3280.84 911.065 3260.69 913.619V915.747C3281.69 916.882 3296.58 922.699 3305.38 933.198C3314.46 943.697 3319 956.608 3319 971.931C3319 997.469 3310.49 1016.76 3293.46 1029.82C3276.72 1042.59 3249.76 1049.4 3212.59 1050.25C3193.58 1050.53 3176.84 1049.54 3162.37 1047.27C3147.9 1045 3134.7 1041.88 3122.78 1037.9V984.7H3125.34C3136.69 988.389 3148.18 991.084 3159.81 992.787C3171.45 994.489 3184.64 995.341 3199.4 995.341C3219.26 995.341 3233.59 993.213 3242.39 988.956C3251.18 984.7 3255.58 977.322 3255.58 966.823C3255.58 957.176 3252.18 950.649 3245.37 947.244C3238.84 943.555 3226.64 941.711 3208.76 941.711H3174.71V886.804H3203.23C3223.66 886.804 3237.42 885.102 3244.52 881.697C3251.89 878.008 3255.58 871.482 3255.58 862.118C3255.58 852.47 3251.47 846.086 3243.24 842.964C3235.29 839.843 3221.25 838.282 3201.1 838.282C3190.03 838.282 3178.83 839.134 3167.48 840.836C3156.41 842.539 3146.34 844.809 3137.26 847.646L3135.55 847.221V794.017Z" fill="black"/>
<path d="M3535.33 853.605C3527.38 849.632 3517.74 846.511 3506.39 844.241C3495.32 841.971 3483.97 840.836 3472.34 840.836C3450.77 840.836 3435.45 844.951 3426.37 853.179C3417.29 861.408 3411.9 875.596 3410.19 895.743H3410.62C3416.58 892.905 3424.52 890.635 3434.45 888.933C3444.39 887.23 3455.59 886.379 3468.08 886.379C3495.6 886.379 3516.6 892.905 3531.07 905.958C3545.54 919.011 3552.78 938.59 3552.78 964.695C3552.78 983.423 3549.8 999.313 3543.84 1012.37C3537.88 1025.13 3527.67 1034.92 3513.2 1041.73C3499.01 1048.26 3479.15 1051.52 3453.61 1051.52C3425.8 1051.52 3404.09 1046.7 3388.49 1037.05C3373.16 1027.41 3362.38 1012.79 3356.14 993.212C3349.89 973.633 3346.77 948.947 3346.77 919.152C3346.77 887.939 3351.31 862.543 3360.39 842.964C3369.76 823.101 3382.67 808.63 3399.13 799.55C3415.58 790.186 3434.88 785.504 3457.01 785.504C3475.74 785.504 3491.63 787.065 3504.68 790.186C3517.74 793.307 3528.52 796.712 3537.03 800.401V852.754L3535.33 853.605ZM3453.61 999.597C3469.21 999.597 3479.71 997.043 3485.1 991.936C3490.5 986.828 3493.19 978.457 3493.19 966.823C3493.19 954.338 3490.07 945.825 3483.83 941.285C3477.58 936.461 3467.37 934.05 3453.18 934.05C3444.39 934.05 3436.01 935.043 3428.07 937.029C3420.12 939.015 3414.02 941.569 3409.77 944.69C3409.48 966.256 3412.6 980.869 3419.13 988.531C3425.94 995.908 3437.43 999.597 3453.61 999.597Z" fill="black"/>
<path d="M3803.45 917.876C3803.45 950.224 3799.77 976.187 3792.39 995.766C3785.01 1015.35 3773.09 1029.53 3756.63 1038.33C3740.18 1047.13 3718.19 1051.52 3690.66 1051.52C3663.42 1051.52 3641.57 1047.13 3625.11 1038.33C3608.66 1029.53 3596.74 1015.35 3589.36 995.766C3581.98 976.187 3578.29 950.224 3578.29 917.876C3578.29 885.244 3581.98 859.138 3589.36 839.559C3596.74 819.98 3608.66 805.792 3625.11 796.996C3641.57 788.2 3663.42 783.801 3690.66 783.801C3718.19 783.801 3740.18 788.2 3756.63 796.996C3773.09 805.792 3785.01 819.98 3792.39 839.559C3799.77 859.138 3803.45 885.244 3803.45 917.876ZM3690.66 994.915C3709.96 994.915 3722.58 988.672 3728.54 976.187C3734.79 963.418 3737.91 943.981 3737.91 917.876C3737.91 891.486 3734.79 872.049 3728.54 859.564C3722.58 847.079 3709.96 840.836 3690.66 840.836C3671.65 840.836 3659.02 847.079 3652.78 859.564C3646.82 872.049 3643.84 891.486 3643.84 917.876C3643.84 943.981 3646.82 963.418 3652.78 976.187C3659.02 988.672 3671.65 994.915 3690.66 994.915Z" fill="black"/>
</g>
<defs>
<clipPath id="clip0_20_2">
<rect width="3993" height="1510" fill="white"/>
</clipPath>
</defs>
</svg>
